<?xml version="1.0" standalone="no"?><!DOCTYPE svg PUBLIC "-//W3C//DTD SVG 1.1//EN" "http://www.w3.org/Graphics/SVG/1.1/DTD/svg11.dtd"><svg t="1538211722021" class="icon" style="" viewBox="0 0 1024 1024" version="1.1" xmlns="http://www.w3.org/2000/svg" p-id="1473" data-spm-anchor-id="a313x.7781069.0.i0" xmlns:xlink="http://www.w3.org/1999/xlink" width="128" height="128"><defs><style type="text/css"></style></defs><path d="M860.009412 1.445647H164.020706A163.779765 163.779765 0 0 0 0 165.044706v693.940706c0 90.322824 73.396706 163.568941 164.020706 163.568941h695.988706A163.749647 163.749647 0 0 0 1024 858.985412v-6.686118s-266.360471-110.712471-400.835765-175.194353c-90.202353 110.682353-206.576941 177.844706-327.378823 177.844706-204.318118 0-273.709176-178.266353-176.941177-295.634823 21.082353-25.6 56.982588-49.995294 112.670118-63.698824 87.100235-21.323294 225.761882 13.312 355.689412 56.079059a709.993412 709.993412 0 0 0 57.675294-140.559059H244.404706v-40.448h206.486588V298.164706H200.824471V257.686588h250.096941V154.262588s0-17.438118 17.709176-17.438117h100.924236v120.862117h247.265882V298.164706h-247.265882v72.493176h201.84847c-19.305412 78.878118-48.670118 151.491765-85.473882 215.250824 61.259294 22.106353 116.254118 43.038118 157.214117 56.711529C990.539294 691.832471 1024 694.512941 1024 694.512941V165.044706A163.749647 163.749647 0 0 0 860.009412 1.445647zM248.892235 556.122353c-25.569882 2.529882-73.607529 13.824-99.870117 36.954353-78.727529 68.457412-31.623529 193.566118 127.668706 193.566118 92.581647 0 185.133176-59.030588 257.807058-153.569883-103.363765-50.266353-190.976-86.256941-285.605647-76.950588z" fill="#ffffff" p-id="1474"></path></svg>